<svg width="613" height="173" viewBox="0 0 613 173" fill="none" xmlns="http://www.w3.org/2000/svg">
<path fill-rule="evenodd" clip-rule="evenodd" d="M188.25 43.709L164.212 128.357C159.408 145.273 141.774 159.006 124.859 159.006H39.6542C22.7382 159.006 12.9052 145.273 17.7088 128.357L41.747 43.709C46.5506 26.7935 64.1836 13.0598 81.0996 13.0598H166.305C183.22 13.0598 193.054 26.7935 188.25 43.709Z" fill="#AFE52B"/>
<path fill-rule="evenodd" clip-rule="evenodd" d="M66.78 100.993H51.7654C49.778 100.993 49.4379 99.3801 51.0067 97.392L59.5336 86.5887C61.1024 84.6006 63.9895 82.9873 65.9775 82.9873H78.9265L86.7617 45.2864C87.1572 43.3835 89.0235 41.8383 90.9267 41.8383H131.526C133.49 41.8383 133.826 43.4326 132.276 45.3966L123.853 56.0687C122.303 58.0327 119.451 59.627 117.487 59.627H101.021L96.1813 82.9161L102.432 82.8931C109.222 82.867 115.584 79.5752 119.528 74.0488L122.766 69.5094C124.026 67.7438 126.061 66.6966 128.229 66.6966H141.243C142.011 66.6966 142.708 67.1405 143.033 67.836C143.358 68.5314 143.249 69.3521 142.756 69.9403L131.35 83.5364C121.691 95.0502 107.366 101.608 92.3407 101.396L86.2898 130.511C85.8943 132.414 84.0286 133.96 82.1254 133.96H71.7815C69.8783 133.96 68.6543 132.414 69.0498 130.511L75.156 101.13L66.7761 100.999L66.78 100.993ZM161.68 45.3966L153.256 56.0687C151.706 58.0327 148.854 59.627 146.89 59.627H133.461C131.497 59.627 131.161 58.0327 132.711 56.0687L141.135 45.3966C142.684 43.4326 145.537 41.8383 147.5 41.8383H160.93C162.893 41.8383 163.229 43.4326 161.68 45.3966Z" fill="black"/>
<path d="M230.443 36.0004H216.772L210.244 75.0007H223.915L230.443 36.0004Z" fill="black"/>
<path fill-rule="evenodd" clip-rule="evenodd" d="M325.128 36H296.139C290.557 36 285.866 40.195 285.246 45.742C284.961 48.287 284.661 50.972 284.398 53.317C284.208 55.015 284.751 56.714 285.89 57.988C287.03 59.262 288.658 59.99 290.367 59.99C297.026 59.99 306.795 59.99 310.802 59.99C311.235 59.99 311.643 60.192 311.907 60.536C312.17 60.879 312.259 61.326 312.146 61.744C312.02 62.214 311.883 62.725 311.754 63.203C311.451 64.329 310.431 65.111 309.265 65.111C303.661 65.111 287.832 65.111 284.083 65.111C283.618 65.111 283.218 65.443 283.131 65.9C282.687 68.243 281.406 75 281.406 75H310.437C316.223 75 321.083 70.647 321.717 64.895C321.952 62.761 322.197 60.54 322.421 58.504C322.641 56.507 321.998 54.511 320.654 53.018C319.31 51.525 317.393 50.676 315.384 50.685C308.782 50.716 299.892 50.758 296.32 50.775C295.916 50.777 295.531 50.607 295.26 50.308C294.989 50.009 294.857 49.609 294.899 49.207C294.93 48.903 294.963 48.577 294.997 48.249C295.156 46.702 296.459 45.527 298.013 45.527C305.182 45.527 323.962 45.527 323.962 45.527L325.128 36Z" fill="black"/>
<path fill-rule="evenodd" clip-rule="evenodd" d="M268.137 36.0004C271.036 36.0004 273.792 37.2759 275.665 39.4894C277.538 41.7029 278.343 44.6281 277.865 47.4878L273.259 74.9997H261.834C261.834 74.9997 264.449 58.1989 265.702 50.1281C265.865 49.071 265.56 47.994 264.862 47.181C264.168 46.3671 263.149 45.8996 262.08 45.8996C259.121 45.8996 255.18 45.8996 252.106 45.8996C249.318 45.8996 246.944 47.9225 246.501 50.675C245.174 58.9315 242.589 74.9997 242.589 74.9997H230.445L234.747 49.3003C236.032 41.6235 242.675 36.0004 250.457 36.0004C256.132 36.0004 262.674 36.0004 268.137 36.0004Z" fill="black"/>
<path fill-rule="evenodd" clip-rule="evenodd" d="M510.739 65.04L509.138 74.9997H496.994L501.296 49.3003C502.581 41.6235 509.224 36.0004 517.006 36.0004H534.685C537.585 36.0004 540.341 37.2759 542.214 39.4894C544.087 41.7029 544.892 44.6281 544.414 47.4878L539.808 74.9997H528.383L529.932 65.04H510.739ZM531.415 55.5001L532.251 50.1281C532.414 49.071 532.108 47.994 531.411 47.181C530.717 46.3671 529.698 45.8996 528.629 45.8996H518.655C515.867 45.8996 513.493 47.9225 513.05 50.675L512.273 55.5001H531.415Z" fill="black"/>
<path fill-rule="evenodd" clip-rule="evenodd" d="M390.885 65.04L389.284 74.9997H377.14L382.696 41.8091C383.257 38.4561 386.158 36.0004 389.557 36.0004H414.831C417.731 36.0004 420.487 37.2759 422.36 39.4894C424.233 41.7029 425.038 44.6281 424.56 47.4878L423.82 51.9048C423.16 55.8276 419.766 58.7012 415.789 58.7012C417.505 58.7012 419.132 59.4566 420.243 60.7658C421.35 62.0751 421.828 63.8062 421.545 65.4985C420.796 69.9692 419.954 74.9997 419.954 74.9997H408.529C408.529 74.9997 408.925 72.4676 409.314 69.9573C409.506 68.7275 409.15 67.4748 408.339 66.5299C407.529 65.5849 406.349 65.04 405.102 65.04C399.417 65.04 390.885 65.04 390.885 65.04ZM411.561 55.5001L412.397 50.1281C412.56 49.071 412.254 47.994 411.557 47.181C410.863 46.3671 409.844 45.8996 408.775 45.8996C408.775 45.8996 400.798 45.8996 396.554 45.8996C395.061 45.8996 393.789 46.9825 393.553 48.4555C393.095 51.2994 392.419 55.5001 392.419 55.5001H411.561Z" fill="black"/>
<path fill-rule="evenodd" clip-rule="evenodd" d="M375.768 36L374.334 46.054H349.467C346.311 46.054 343.619 48.343 343.111 51.458C342.621 54.472 342.017 58.174 341.56 60.982C341.386 62.045 341.689 63.13 342.386 63.95C343.084 64.771 344.106 65.244 345.183 65.244C353.646 65.244 371.598 65.244 371.598 65.244L370.207 75H337.934C335.322 75 332.84 73.867 331.128 71.894C329.417 69.921 328.645 67.303 329.014 64.718C329.68 60.051 330.475 54.47 331.188 49.474C332.29 41.743 338.91 36 346.719 36C359.204 36 375.768 36 375.768 36Z" fill="black"/>
<path fill-rule="evenodd" clip-rule="evenodd" d="M495.568 36L494.134 46.054H469.268C466.111 46.054 463.419 48.343 462.911 51.458C462.421 54.472 461.817 58.174 461.36 60.982C461.186 62.045 461.489 63.13 462.186 63.95C462.884 64.771 463.906 65.244 464.983 65.244C473.446 65.244 491.398 65.244 491.398 65.244L490.007 75H478.109C478.109 75 477.647 76.205 477.297 77.113C477.213 77.335 477.243 77.585 477.379 77.78C477.515 77.976 477.74 78.091 477.977 78.088C478.395 78.083 478.895 78.077 479.399 78.07C480.054 78.062 480.682 78.342 481.114 78.835C481.547 79.328 481.742 79.986 481.649 80.635C481.546 81.341 481.433 82.131 481.319 82.926C480.888 85.914 478.329 88.132 475.311 88.134C469.849 88.137 462.091 88.142 462.091 88.142L463.068 82.802H470.112L470.353 80.207H467.237C466.791 80.207 466.379 79.969 466.155 79.583C465.932 79.196 465.931 78.72 466.153 78.333C467.01 76.841 468.067 75 468.067 75H457.734C455.122 75 452.64 73.867 450.928 71.894C449.217 69.921 448.446 67.303 448.814 64.718C449.48 60.051 450.276 54.47 450.988 49.474C452.09 41.743 458.71 36 466.52 36C479.004 36 495.568 36 495.568 36Z" fill="black"/>
<path d="M447.142 36H433.281L426.901 75H440.762L447.142 36Z" fill="black"/>
<path fill-rule="evenodd" clip-rule="evenodd" d="M585.211 36C588.45 36 591.523 37.422 593.619 39.888C595.715 42.355 596.62 45.618 596.098 48.813L594.195 60.445C592.822 68.838 585.57 75 577.064 75H560.238C557.003 75 553.93 73.578 551.83 71.112C549.734 68.645 548.828 65.382 549.351 62.187L551.254 50.555C552.627 42.162 559.879 36 568.385 36H585.211ZM579.09 45.93H571.743C567.769 45.93 564.384 48.807 563.743 52.727L562.472 60.494C562.285 61.635 562.609 62.801 563.358 63.682C564.104 64.563 565.203 65.07 566.358 65.07H573.709C577.68 65.07 581.065 62.193 581.706 58.273L582.977 50.506C583.163 49.365 582.84 48.199 582.094 47.318C581.345 46.437 580.245 45.93 579.09 45.93Z" fill="black"/>
<path fill-rule="evenodd" clip-rule="evenodd" d="M512.837 31.514C512.515 31.89 512.441 32.419 512.648 32.869C512.855 33.319 513.305 33.608 513.8 33.608H519.62C520.223 33.608 520.788 33.312 521.132 32.817C521.458 32.348 521.857 31.774 522.117 31.4C522.289 31.153 522.57 31.006 522.871 31.006C523.18 31.006 523.576 31.006 523.864 31.006C524.107 31.006 524.341 31.103 524.513 31.275C524.989 31.751 525.971 32.733 526.396 33.158C526.527 33.289 526.704 33.362 526.889 33.362C527.969 33.362 531.822 33.362 534.017 33.362C535 33.362 535.928 32.904 536.526 32.124C537.702 30.589 539.723 27.952 541.129 26.117C541.422 25.734 541.473 25.217 541.259 24.784C541.046 24.351 540.605 24.077 540.122 24.077C538.319 24.077 536.013 24.077 534.743 24.077C534.168 24.077 533.644 24.411 533.402 24.933C533.238 25.284 533.051 25.687 532.891 26.031C532.668 26.51 532.188 26.816 531.66 26.816C530.746 26.816 529.333 26.816 528.554 26.816C528.194 26.816 527.848 26.673 527.594 26.418C527.265 26.089 526.785 25.609 526.361 25.185C525.768 24.592 524.964 24.259 524.125 24.259C523.073 24.259 521.595 24.259 520.506 24.259C519.583 24.259 518.705 24.663 518.105 25.364C516.812 26.873 514.468 29.61 512.837 31.514Z" fill="black"/>
<path fill-rule="evenodd" clip-rule="evenodd" d="M267.987 130.295L266.428 140H254.284L258.476 114.959C259.728 107.479 266.347 102 274.129 102H291.809C294.708 102 297.469 103.243 299.352 105.4C301.234 107.557 302.052 110.407 301.586 113.193L297.099 140H285.674L287.18 130.295H267.987ZM288.621 121L289.435 115.766C289.594 114.736 289.283 113.686 288.582 112.894C287.885 112.101 286.864 111.646 285.794 111.646H275.821C273.032 111.646 270.667 113.617 270.236 116.299L269.48 121H288.621Z" fill="black"/>
<path fill-rule="evenodd" clip-rule="evenodd" d="M353.507 102L352.11 111.796H327.24C324.085 111.796 321.394 114.083 320.885 117.197C320.415 120.069 319.847 123.55 319.408 126.23C319.234 127.293 319.536 128.379 320.233 129.2C320.931 130.021 321.954 130.494 323.031 130.494C331.495 130.494 349.444 130.494 349.444 130.494L348.088 140H315.816C313.204 140 310.721 138.867 309.01 136.894C307.298 134.922 306.527 132.303 306.896 129.718C307.521 125.333 308.259 120.158 308.927 115.474C310.029 107.743 316.649 102 324.458 102H353.507Z" fill="black"/>
<path d="M374.028 102H360.167L353.951 140H367.812L374.028 102Z" fill="black"/>
<path fill-rule="evenodd" clip-rule="evenodd" d="M276.106 99.023L283.123 88.142H298.97L288.934 99.023H276.106Z" fill="black"/>
<path fill-rule="evenodd" clip-rule="evenodd" d="M408.134 140H374.446L380.662 102H393.216L388.601 130.214H409.735L408.134 140Z" fill="black"/>
<path fill-rule="evenodd" clip-rule="evenodd" d="M224.273 102C226.819 102 253.094 102 253.094 102L251.534 111.018H230.692C228.907 111.018 227.385 112.312 227.097 114.073C226.723 116.358 226.276 119.09 226.276 119.09H249.62L248.306 128.022H224.815L222.856 140H210.955L216.025 109.009C216.686 104.967 220.178 102 224.273 102Z" fill="black"/>
</svg>
